<svg xmlns="http://www.w3.org/2000/svg" width="109" height="109" viewBox="0 0 109 109">
  <g id="加载失败" transform="translate(-15 -168)">
    <rect id="矩形_74" data-name="矩形 74" width="109" height="109" rx="4" transform="translate(15 168)" fill="#f3f5f8"/>
    <g id="相册" transform="translate(54 208)">
      <rect id="矩形复制_52" data-name="矩形复制 52" width="28" height="28" fill="none"/>
      <path id="Subtract" d="M17.252,26H1.3A1.306,1.306,0,0,1,0,24.8V1.3A1.306,1.306,0,0,1,1.2,0H24.7A1.306,1.306,0,0,1,26,1.2V16.062a8.113,8.113,0,0,0-2,0V2H2V24H17a8.033,8.033,0,0,0,.251,2Zm.523-5.441H11.11a.312.312,0,0,1-.1-.01l-5.4-.02a.38.38,0,0,1-.38-.38.365.365,0,0,1,.11-.26l5.22-5.22a.492.492,0,0,1,.351-.142.518.518,0,0,1,.359.142l2.41,2.41,6.38-6.38a.5.5,0,0,1,.71,0,.47.47,0,0,1,.149.35v6.067a7.992,7.992,0,0,0-3.144,3.442ZM9.57,9.22H5.78V5.43H9.57V9.219Z" transform="translate(1 1)" fill="#acb8c9"/>
      <path id="路径" d="M6,0a6,6,0,1,0,6,6A6,6,0,0,0,6,0Z" transform="translate(20 19)" fill="#acb8c9"/>
      <path id="Union" d="M.834,5.844.056,5.066a.2.2,0,0,1,0-.283L1.895,2.945.067,1.117a.2.2,0,0,1,0-.283L.844.056a.2.2,0,0,1,.283,0L2.955,1.884,4.723.116a.2.2,0,0,1,.283,0l.778.778a.2.2,0,0,1,0,.284L4.016,2.945,5.794,4.723a.2.2,0,0,1,0,.283l-.778.778a.2.2,0,0,1-.283,0L2.955,4.005,1.117,5.844A.2.2,0,0,1,.975,5.9.2.2,0,0,1,.834,5.844Z" transform="translate(23 22)" fill="#fff"/>
    </g>
  </g>
</svg>
