<svg xmlns="http://www.w3.org/2000/svg" width="109" height="109" viewBox="0 0 109 109">
  <g id="图片占位" transform="translate(-15 -168)">
    <rect id="矩形_74" data-name="矩形 74" width="109" height="109" rx="4" transform="translate(15 168)" fill="#f3f5f8"/>
    <g id="相册" transform="translate(56 209)">
      <rect id="矩形复制_52" data-name="矩形复制 52" width="28" height="28" fill="none"/>
      <path id="形状" d="M24.8,26H1.3A1.306,1.306,0,0,1,0,24.8V1.3A1.306,1.306,0,0,1,1.2,0H24.7A1.306,1.306,0,0,1,26,1.2V24.7A1.306,1.306,0,0,1,24.8,26ZM2,2V24H24V2ZM20.54,20.56H11.11a.312.312,0,0,1-.1-.01l-5.4-.02a.38.38,0,0,1-.38-.38.365.365,0,0,1,.11-.26l5.22-5.22a.492.492,0,0,1,.351-.142.518.518,0,0,1,.359.142l2.41,2.41,6.38-6.38a.5.5,0,0,1,.71,0,.469.469,0,0,1,.149.35v9.13A.38.38,0,0,1,20.54,20.56ZM9.57,9.22H5.78V5.43H9.57V9.219Z" transform="translate(1 1)" fill="#acb8c9"/>
    </g>
  </g>
</svg>
